%TF.GenerationSoftware,KiCad,Pcbnew,9.0.4*%
%TF.CreationDate,2026-08-01T19:29:16-05:00*%
%TF.ProjectId,DevelopmentBreadboard,44657665-6c6f-4706-9d65-6e7442726561,rev?*%
%TF.SameCoordinates,Original*%
%TF.FileFunction,Soldermask,Top*%
%TF.FilePolarity,Negative*%
%FSLAX46Y46*%
G04 Gerber Fmt 4.6, Leading zero omitted, Abs format (unit mm)*
G04 Created by KiCad (PCBNEW 9.0.4) date 2026-08-01 19:29:16*
%MOMM*%
%LPD*%
G01*
G04 APERTURE LIST*
%ADD10R,1.700000X1.700000*%
%ADD11C,1.700000*%
G04 APERTURE END LIST*
D10*
%TO.C,J2*%
X154500000Y-93130000D03*
D11*
X154500000Y-95670000D03*
X154500000Y-98210000D03*
X154500000Y-100750000D03*
X154500000Y-103290000D03*
X154500000Y-105830000D03*
X154500000Y-108370000D03*
X154500000Y-110910000D03*
X154500000Y-113450000D03*
X154500000Y-115990000D03*
X154500000Y-118530000D03*
%TD*%
D10*
%TO.C,J1*%
X120000000Y-80000000D03*
D11*
X120000000Y-82540000D03*
X120000000Y-85080000D03*
X120000000Y-87620000D03*
X120000000Y-90160000D03*
X120000000Y-92700000D03*
X120000000Y-95240000D03*
X120000000Y-97780000D03*
X120000000Y-100320000D03*
X120000000Y-102860000D03*
X120000000Y-105400000D03*
X120000000Y-107940000D03*
X120000000Y-110480000D03*
X120000000Y-113020000D03*
X120000000Y-115560000D03*
X120000000Y-118100000D03*
X120000000Y-120640000D03*
X120000000Y-123180000D03*
X120000000Y-125720000D03*
X120000000Y-128260000D03*
X120000000Y-130800000D03*
X120000000Y-133340000D03*
%TD*%
%TO.C,J4*%
X111290000Y-113620000D03*
D10*
X108750000Y-113620000D03*
D11*
X111290000Y-111080000D03*
X108750000Y-111080000D03*
X111290000Y-108540000D03*
X108750000Y-108540000D03*
X111290000Y-106000000D03*
X108750000Y-106000000D03*
X111290000Y-103460000D03*
X108750000Y-103460000D03*
X111290000Y-100920000D03*
X108750000Y-100920000D03*
X111290000Y-98380000D03*
X108750000Y-98380000D03*
X111290000Y-95840000D03*
X108750000Y-95840000D03*
X111290000Y-93300000D03*
X108750000Y-93300000D03*
%TD*%
D10*
%TO.C,J3*%
X142860000Y-80000000D03*
D11*
X142860000Y-82540000D03*
X142860000Y-85080000D03*
X142860000Y-87620000D03*
X142860000Y-90160000D03*
X142860000Y-92700000D03*
X142860000Y-95240000D03*
X142860000Y-97780000D03*
X142860000Y-100320000D03*
X142860000Y-102860000D03*
X142860000Y-105400000D03*
X142860000Y-107940000D03*
X142860000Y-110480000D03*
X142860000Y-113020000D03*
X142860000Y-115560000D03*
X142860000Y-118100000D03*
X142860000Y-120640000D03*
X142860000Y-123180000D03*
X142860000Y-125720000D03*
X142860000Y-128260000D03*
X142860000Y-130800000D03*
X142860000Y-133340000D03*
%TD*%
M02*
