%TF.GenerationSoftware,KiCad,Pcbnew,9.0.4*%
%TF.CreationDate,2026-08-01T19:29:15-05:00*%
%TF.ProjectId,DevelopmentBreadboard,44657665-6c6f-4706-9d65-6e7442726561,rev?*%
%TF.SameCoordinates,Original*%
%TF.FileFunction,Copper,L2,Bot*%
%TF.FilePolarity,Positive*%
%FSLAX46Y46*%
G04 Gerber Fmt 4.6, Leading zero omitted, Abs format (unit mm)*
G04 Created by KiCad (PCBNEW 9.0.4) date 2026-08-01 19:29:15*
%MOMM*%
%LPD*%
G01*
G04 APERTURE LIST*
%TA.AperFunction,ComponentPad*%
%ADD10R,1.700000X1.700000*%
%TD*%
%TA.AperFunction,ComponentPad*%
%ADD11C,1.700000*%
%TD*%
%TA.AperFunction,ViaPad*%
%ADD12C,0.600000*%
%TD*%
%TA.AperFunction,Conductor*%
%ADD13C,0.200000*%
%TD*%
G04 APERTURE END LIST*
D10*
%TO.P,J2,1,Pin_1*%
%TO.N,Net-(J1-Pin_2)*%
X154500000Y-93130000D03*
D11*
%TO.P,J2,2,Pin_2*%
X154500000Y-95670000D03*
%TO.P,J2,3,Pin_3*%
%TO.N,Net-(J2-Pin_3)*%
X154500000Y-98210000D03*
%TO.P,J2,4,Pin_4*%
%TO.N,Net-(J1-Pin_20)*%
X154500000Y-100750000D03*
%TO.P,J2,5,Pin_5*%
%TO.N,Net-(J1-Pin_13)*%
X154500000Y-103290000D03*
%TO.P,J2,6,Pin_6*%
%TO.N,Net-(J2-Pin_6)*%
X154500000Y-105830000D03*
%TO.P,J2,7,Pin_7*%
%TO.N,Net-(J2-Pin_7)*%
X154500000Y-108370000D03*
%TO.P,J2,8,Pin_8*%
%TO.N,Net-(J2-Pin_8)*%
X154500000Y-110910000D03*
%TO.P,J2,9,Pin_9*%
%TO.N,Net-(J2-Pin_9)*%
X154500000Y-113450000D03*
%TO.P,J2,10,Pin_10*%
%TO.N,Net-(J2-Pin_10)*%
X154500000Y-115990000D03*
%TO.P,J2,11,Pin_11*%
%TO.N,Net-(J1-Pin_2)*%
X154500000Y-118530000D03*
%TD*%
D10*
%TO.P,J1,1,Pin_1*%
%TO.N,Net-(J1-Pin_1)*%
X120000000Y-80000000D03*
D11*
%TO.P,J1,2,Pin_2*%
%TO.N,Net-(J1-Pin_2)*%
X120000000Y-82540000D03*
%TO.P,J1,3,Pin_3*%
%TO.N,unconnected-(J1-Pin_3-Pad3)*%
X120000000Y-85080000D03*
%TO.P,J1,4,Pin_4*%
%TO.N,Net-(J1-Pin_4)*%
X120000000Y-87620000D03*
%TO.P,J1,5,Pin_5*%
%TO.N,Net-(J1-Pin_5)*%
X120000000Y-90160000D03*
%TO.P,J1,6,Pin_6*%
%TO.N,Net-(J1-Pin_6)*%
X120000000Y-92700000D03*
%TO.P,J1,7,Pin_7*%
%TO.N,Net-(J1-Pin_7)*%
X120000000Y-95240000D03*
%TO.P,J1,8,Pin_8*%
%TO.N,Net-(J1-Pin_8)*%
X120000000Y-97780000D03*
%TO.P,J1,9,Pin_9*%
%TO.N,Net-(J1-Pin_9)*%
X120000000Y-100320000D03*
%TO.P,J1,10,Pin_10*%
%TO.N,Net-(J1-Pin_10)*%
X120000000Y-102860000D03*
%TO.P,J1,11,Pin_11*%
%TO.N,Net-(J1-Pin_11)*%
X120000000Y-105400000D03*
%TO.P,J1,12,Pin_12*%
%TO.N,Net-(J1-Pin_12)*%
X120000000Y-107940000D03*
%TO.P,J1,13,Pin_13*%
%TO.N,Net-(J1-Pin_13)*%
X120000000Y-110480000D03*
%TO.P,J1,14,Pin_14*%
%TO.N,unconnected-(J1-Pin_14-Pad14)*%
X120000000Y-113020000D03*
%TO.P,J1,15,Pin_15*%
%TO.N,Net-(J1-Pin_15)*%
X120000000Y-115560000D03*
%TO.P,J1,16,Pin_16*%
%TO.N,Net-(J1-Pin_16)*%
X120000000Y-118100000D03*
%TO.P,J1,17,Pin_17*%
%TO.N,Net-(J1-Pin_17)*%
X120000000Y-120640000D03*
%TO.P,J1,18,Pin_18*%
%TO.N,Net-(J1-Pin_18)*%
X120000000Y-123180000D03*
%TO.P,J1,19,Pin_19*%
%TO.N,Net-(J1-Pin_19)*%
X120000000Y-125720000D03*
%TO.P,J1,20,Pin_20*%
%TO.N,Net-(J1-Pin_20)*%
X120000000Y-128260000D03*
%TO.P,J1,21,Pin_21*%
%TO.N,unconnected-(J1-Pin_21-Pad21)*%
X120000000Y-130800000D03*
%TO.P,J1,22,Pin_22*%
%TO.N,Net-(J1-Pin_22)*%
X120000000Y-133340000D03*
%TD*%
%TO.P,J4,1,Pin_1*%
%TO.N,Net-(J1-Pin_1)*%
X111290000Y-113620000D03*
D10*
%TO.P,J4,2,Pin_2*%
%TO.N,Net-(J1-Pin_22)*%
X108750000Y-113620000D03*
D11*
%TO.P,J4,3,Pin_3*%
%TO.N,Net-(J1-Pin_4)*%
X111290000Y-111080000D03*
%TO.P,J4,4,Pin_4*%
%TO.N,Net-(J1-Pin_5)*%
X108750000Y-111080000D03*
%TO.P,J4,5,Pin_5*%
%TO.N,Net-(J1-Pin_6)*%
X111290000Y-108540000D03*
%TO.P,J4,6,Pin_6*%
%TO.N,Net-(J1-Pin_7)*%
X108750000Y-108540000D03*
%TO.P,J4,7,Pin_7*%
%TO.N,Net-(J1-Pin_19)*%
X111290000Y-106000000D03*
%TO.P,J4,8,Pin_8*%
%TO.N,Net-(J1-Pin_8)*%
X108750000Y-106000000D03*
%TO.P,J4,9,Pin_9*%
%TO.N,Net-(J1-Pin_9)*%
X111290000Y-103460000D03*
%TO.P,J4,10,Pin_10*%
%TO.N,Net-(J1-Pin_17)*%
X108750000Y-103460000D03*
%TO.P,J4,11,Pin_11*%
%TO.N,Net-(J1-Pin_10)*%
X111290000Y-100920000D03*
%TO.P,J4,12,Pin_12*%
%TO.N,Net-(J1-Pin_15)*%
X108750000Y-100920000D03*
%TO.P,J4,13,Pin_13*%
%TO.N,Net-(J1-Pin_16)*%
X111290000Y-98380000D03*
%TO.P,J4,14,Pin_14*%
%TO.N,Net-(J1-Pin_12)*%
X108750000Y-98380000D03*
%TO.P,J4,15,Pin_15*%
%TO.N,Net-(J1-Pin_11)*%
X111290000Y-95840000D03*
%TO.P,J4,16,Pin_16*%
%TO.N,Net-(J1-Pin_18)*%
X108750000Y-95840000D03*
%TO.P,J4,17,Pin_17*%
%TO.N,Net-(J3-Pin_18)*%
X111290000Y-93300000D03*
%TO.P,J4,18,Pin_18*%
%TO.N,Net-(J3-Pin_1)*%
X108750000Y-93300000D03*
%TD*%
D10*
%TO.P,J3,1,Pin_1*%
%TO.N,Net-(J3-Pin_1)*%
X142860000Y-80000000D03*
D11*
%TO.P,J3,2,Pin_2*%
%TO.N,unconnected-(J3-Pin_2-Pad2)*%
X142860000Y-82540000D03*
%TO.P,J3,3,Pin_3*%
%TO.N,unconnected-(J3-Pin_3-Pad3)*%
X142860000Y-85080000D03*
%TO.P,J3,4,Pin_4*%
%TO.N,Net-(J2-Pin_6)*%
X142860000Y-87620000D03*
%TO.P,J3,5,Pin_5*%
%TO.N,Net-(J2-Pin_10)*%
X142860000Y-90160000D03*
%TO.P,J3,6,Pin_6*%
%TO.N,Net-(J2-Pin_8)*%
X142860000Y-92700000D03*
%TO.P,J3,7,Pin_7*%
%TO.N,Net-(J2-Pin_7)*%
X142860000Y-95240000D03*
%TO.P,J3,8,Pin_8*%
%TO.N,Net-(J2-Pin_9)*%
X142860000Y-97780000D03*
%TO.P,J3,9,Pin_9*%
%TO.N,unconnected-(J3-Pin_9-Pad9)*%
X142860000Y-100320000D03*
%TO.P,J3,10,Pin_10*%
%TO.N,unconnected-(J3-Pin_10-Pad10)*%
X142860000Y-102860000D03*
%TO.P,J3,11,Pin_11*%
%TO.N,unconnected-(J3-Pin_11-Pad11)*%
X142860000Y-105400000D03*
%TO.P,J3,12,Pin_12*%
%TO.N,unconnected-(J3-Pin_12-Pad12)*%
X142860000Y-107940000D03*
%TO.P,J3,13,Pin_13*%
%TO.N,unconnected-(J3-Pin_13-Pad13)*%
X142860000Y-110480000D03*
%TO.P,J3,14,Pin_14*%
%TO.N,unconnected-(J3-Pin_14-Pad14)*%
X142860000Y-113020000D03*
%TO.P,J3,15,Pin_15*%
%TO.N,unconnected-(J3-Pin_15-Pad15)*%
X142860000Y-115560000D03*
%TO.P,J3,16,Pin_16*%
%TO.N,unconnected-(J3-Pin_16-Pad16)*%
X142860000Y-118100000D03*
%TO.P,J3,17,Pin_17*%
%TO.N,unconnected-(J3-Pin_17-Pad17)*%
X142860000Y-120640000D03*
%TO.P,J3,18,Pin_18*%
%TO.N,Net-(J3-Pin_18)*%
X142860000Y-123180000D03*
%TO.P,J3,19,Pin_19*%
%TO.N,unconnected-(J3-Pin_19-Pad19)*%
X142860000Y-125720000D03*
%TO.P,J3,20,Pin_20*%
%TO.N,unconnected-(J3-Pin_20-Pad20)*%
X142860000Y-128260000D03*
%TO.P,J3,21,Pin_21*%
%TO.N,Net-(J2-Pin_3)*%
X142860000Y-130800000D03*
%TO.P,J3,22,Pin_22*%
%TO.N,unconnected-(J3-Pin_22-Pad22)*%
X142860000Y-133340000D03*
%TD*%
D12*
%TO.N,Net-(J1-Pin_6)*%
X118643400Y-107644600D03*
%TO.N,Net-(J1-Pin_18)*%
X108016200Y-123994900D03*
%TO.N,Net-(J1-Pin_20)*%
X128191600Y-105789100D03*
%TO.N,Net-(J1-Pin_4)*%
X122551600Y-105661300D03*
%TO.N,Net-(J1-Pin_15)*%
X108082000Y-115560900D03*
%TO.N,Net-(J1-Pin_1)*%
X123195200Y-111516900D03*
%TO.N,Net-(J2-Pin_3)*%
X144954500Y-105789100D03*
X153261100Y-104228100D03*
%TO.N,Net-(J3-Pin_18)*%
X122343500Y-121018200D03*
%TD*%
D13*
%TO.N,Net-(J1-Pin_9)*%
X120469300Y-104046200D02*
X111876200Y-104046200D01*
X120000000Y-100320000D02*
X121164900Y-101484900D01*
X111876200Y-104046200D02*
X111290000Y-103460000D01*
X121164900Y-103350600D02*
X120469300Y-104046200D01*
X121164900Y-101484900D02*
X121164900Y-103350600D01*
%TO.N,Net-(J1-Pin_8)*%
X120000000Y-97780000D02*
X118130000Y-99650000D01*
X110020000Y-100520500D02*
X110020000Y-104730000D01*
X110020000Y-104730000D02*
X108750000Y-106000000D01*
X118130000Y-99650000D02*
X110890500Y-99650000D01*
X110890500Y-99650000D02*
X110020000Y-100520500D01*
%TO.N,Net-(J1-Pin_7)*%
X107410600Y-106861800D02*
X107575400Y-107026600D01*
X120000000Y-95240000D02*
X118130000Y-97110000D01*
X107575400Y-107026600D02*
X107575400Y-107365400D01*
X107410600Y-106861800D02*
X107575400Y-107026600D01*
X107175200Y-98299000D02*
X107175200Y-106626400D01*
X107575400Y-107365400D02*
X108750000Y-108540000D01*
X107175200Y-106626400D02*
X107410600Y-106861800D01*
X118130000Y-97110000D02*
X108364200Y-97110000D01*
X108364200Y-97110000D02*
X107175200Y-98299000D01*
%TO.N,Net-(J1-Pin_6)*%
X117748000Y-108540000D02*
X111290000Y-108540000D01*
X118643400Y-107644600D02*
X117748000Y-108540000D01*
%TO.N,Net-(J1-Pin_13)*%
X120000000Y-110480000D02*
X123810000Y-106670000D01*
X151670100Y-106670000D02*
X154500000Y-103840100D01*
X154500000Y-103840100D02*
X154500000Y-103290000D01*
X123810000Y-106670000D02*
X151670100Y-106670000D01*
%TO.N,Net-(J1-Pin_18)*%
X119185100Y-123994900D02*
X120000000Y-123180000D01*
X108016200Y-123994900D02*
X119185100Y-123994900D01*
%TO.N,Net-(J1-Pin_20)*%
X151120000Y-104130000D02*
X129850700Y-104130000D01*
X154500000Y-100750000D02*
X151120000Y-104130000D01*
X129850700Y-104130000D02*
X128191600Y-105789100D01*
%TO.N,Net-(J1-Pin_4)*%
X122551600Y-107064700D02*
X122551600Y-105620000D01*
X111290000Y-111080000D02*
X113278300Y-109091700D01*
X113278300Y-109091700D02*
X120524600Y-109091700D01*
X122551600Y-105620000D02*
X122551600Y-105661300D01*
X120524600Y-109091700D02*
X122551600Y-107064700D01*
%TO.N,Net-(J1-Pin_10)*%
X113230000Y-102860000D02*
X120000000Y-102860000D01*
X111290000Y-100920000D02*
X113230000Y-102860000D01*
%TO.N,Net-(J1-Pin_2)*%
X126350000Y-88890000D02*
X149108300Y-88890000D01*
X149108300Y-88890000D02*
X153348300Y-93130000D01*
X120000000Y-82540000D02*
X126350000Y-88890000D01*
X154500000Y-93130000D02*
X153348300Y-93130000D01*
%TO.N,Net-(J1-Pin_15)*%
X108082000Y-115560900D02*
X119999100Y-115560900D01*
X119999100Y-115560900D02*
X120000000Y-115560000D01*
%TO.N,Net-(J1-Pin_12)*%
X108273200Y-107156400D02*
X107576900Y-106460100D01*
X107576900Y-106460100D02*
X107576900Y-99553100D01*
X107576900Y-99553100D02*
X108750000Y-98380000D01*
X119102900Y-107042900D02*
X112219100Y-107042900D01*
X112105600Y-107156400D02*
X108273200Y-107156400D01*
X112219100Y-107042900D02*
X112105600Y-107156400D01*
X120000000Y-107940000D02*
X119102900Y-107042900D01*
%TO.N,Net-(J1-Pin_1)*%
X113093100Y-111816900D02*
X121958000Y-111816900D01*
X111290000Y-113620000D02*
X113093100Y-111816900D01*
X121958000Y-111816900D02*
X122426600Y-112285500D01*
X122426600Y-112285500D02*
X123195200Y-111516900D01*
%TO.N,Net-(J2-Pin_3)*%
X151700100Y-105789100D02*
X144954500Y-105789100D01*
X153261100Y-104228100D02*
X151700100Y-105789100D01*
%TO.N,Net-(J2-Pin_7)*%
X142860000Y-95240000D02*
X147100000Y-99480000D01*
X155708400Y-100266300D02*
X155708400Y-107161600D01*
X147100000Y-99480000D02*
X154922100Y-99480000D01*
X155708400Y-107161600D02*
X154500000Y-108370000D01*
X154922100Y-99480000D02*
X155708400Y-100266300D01*
%TO.N,Net-(J3-Pin_1)*%
X119713700Y-81151700D02*
X108750000Y-92115400D01*
X140556600Y-81151700D02*
X119713700Y-81151700D01*
X141708300Y-80000000D02*
X140556600Y-81151700D01*
X142860000Y-80000000D02*
X141708300Y-80000000D01*
X108750000Y-92115400D02*
X108750000Y-93300000D01*
%TO.N,Net-(J3-Pin_18)*%
X122343500Y-121018200D02*
X124505300Y-123180000D01*
X124505300Y-123180000D02*
X142860000Y-123180000D01*
%TD*%
M02*
